<svg width="180" height="81" viewBox="0 0 180 81" fill="none" xmlns="http://www.w3.org/2000/svg">
<path fill-rule="evenodd" clip-rule="evenodd" d="M35.1922 45.9299L37.7869 35.4006H44.6321C45.3595 35.4006 46.0032 35.5303 46.5451 35.7853C47.0886 36.0409 47.5322 36.3986 47.8637 36.8479C48.1932 37.2949 48.4069 37.8444 48.4989 38.4811C48.5924 39.1305 48.5432 39.8519 48.3529 40.6249C48.1619 41.3997 47.8534 42.1268 47.4363 42.7863C47.2851 43.0252 47.1229 43.252 46.9508 43.4664C48.419 43.0629 49.969 42.6551 51.6039 42.2465C52.2983 42.0728 52.9978 41.9025 53.7007 41.7343C53.8443 41.3171 53.97 40.8933 54.076 40.4627C54.4606 38.9016 54.5508 37.4461 54.344 36.136C54.1361 34.821 53.6676 33.6724 52.9517 32.7224C52.2348 31.7715 51.2739 31.0237 50.095 30.5003C48.9237 29.9808 47.5571 29.7173 46.0326 29.7173H33.531L28.5977 49.7366C30.2272 49.0149 33.6058 47.6125 38.7409 45.9299H35.1922Z" fill="#252D5A"/>
<path fill-rule="evenodd" clip-rule="evenodd" d="M63.568 35.4006H73.1424C74.0408 35.4006 74.6435 35.6052 74.9847 36.0254C75.2549 36.3585 75.3293 36.8932 75.2088 37.6167C77.1182 37.3343 79.0459 37.0693 80.9902 36.8224C81.0992 36.0455 81.1141 35.3156 81.0327 34.6434C80.9079 33.6129 80.57 32.7185 80.028 31.985C79.4846 31.2502 78.7347 30.6797 77.7989 30.2896C76.886 29.9098 75.7905 29.7173 74.543 29.7173H59.3119L56.5117 41.0815C58.4718 40.6391 60.462 40.2171 62.4798 39.8157L63.568 35.4006Z" fill="#252D5A"/>
<path fill-rule="evenodd" clip-rule="evenodd" d="M92.5703 29.7173H86.8867L85.2617 36.3118C87.1897 36.0956 89.1337 35.8967 91.0923 35.7152L92.5703 29.7173Z" fill="#252D5A"/>
<path fill-rule="evenodd" clip-rule="evenodd" d="M101.876 34.9L100.099 29.7173H93.2773L95.2745 35.3557C97.4584 35.1826 99.6593 35.0308 101.876 34.9Z" fill="#252D5A"/>
<path fill-rule="evenodd" clip-rule="evenodd" d="M123.2 29.7173H116.618L112.684 34.4354C114.877 34.3753 117.082 34.3355 119.298 34.3161L123.2 29.7173Z" fill="#252D5A"/>
<path fill-rule="evenodd" clip-rule="evenodd" d="M142.742 34.8411L144.005 29.7173H124.216L123.086 34.3027C129.517 34.3131 136.097 34.4937 142.742 34.8411Z" fill="#252D5A"/>
<path fill-rule="evenodd" clip-rule="evenodd" d="M104.91 43.7549L102.936 37.9975C105.434 37.7467 107.876 37.532 110.252 37.3489L104.91 43.7549ZM150.357 36.8328C150.694 36.8531 150.995 36.8732 151.259 36.8908C150.96 36.8683 150.661 36.8471 150.362 36.8255C71.49 31.2035 29.8465 50.7902 28.1882 51.5884L28.1571 51.5307L28.1368 51.613H28.1367H28.1368L28.1367 51.6133H40.6385C40.6466 51.6133 40.6546 51.613 40.6628 51.613H41.2951C41.3146 51.6057 41.3341 51.5987 41.3536 51.5914C42.6456 51.5152 43.9165 51.2332 45.1406 50.7486C46.1149 50.363 47.0403 49.8751 47.9053 49.2928C50.2787 48.5058 52.6569 47.7656 55.0345 47.0691L53.9144 51.6133H59.5711L60.9179 46.1482L69.1555 46.1549L72.7822 51.6133H80.844L75.7828 44.8154C76.7388 44.2737 77.5968 43.5776 78.3471 42.7329C78.7354 42.2963 79.0842 41.8236 79.3948 41.3187C81.0186 41.0196 82.6326 40.7379 84.2347 40.4725L81.4892 51.6133H87.1728L90.1436 39.558C92.278 39.2505 94.3866 38.9708 96.464 38.7173L100.538 50.2218C100.696 50.6942 100.94 51.0798 101.262 51.3683C101.644 51.7101 102.153 51.8835 102.774 51.8835C103.377 51.8835 103.961 51.7101 104.512 51.3683C104.975 51.0807 105.408 50.6955 105.8 50.223L117.108 36.8953C118.961 36.7927 120.763 36.7086 122.508 36.6409L118.818 51.6133H138.634L140.034 45.93H125.876L126.579 43.0748H138.49L139.757 37.9319H127.846L128.206 36.4706C138.812 36.2471 146.702 36.6075 150.357 36.8328Z" fill="#252D5A"/>
</svg>
