<svg width="180" height="81" viewBox="0 0 180 81" fill="none" xmlns="http://www.w3.org/2000/svg">
<path fill-rule="evenodd" clip-rule="evenodd" d="M82.832 41.4793C82.832 40.4572 82.6495 39.4902 82.2849 38.5787C81.9201 37.6671 81.4136 36.8728 80.7652 36.196C80.1168 35.5193 79.34 34.9841 78.435 34.5904C77.53 34.1969 76.5305 34 75.4363 34C74.3421 34 73.3425 34.2003 72.4373 34.6008C71.5323 35.0014 70.7488 35.5435 70.0869 36.2271C69.4252 36.911 68.9117 37.7085 68.5471 38.6202C68.1823 39.5316 68 40.4986 68 41.5207C68 42.5428 68.1823 43.5096 68.5471 44.4213C68.9117 45.3327 69.4183 46.127 70.0666 46.8038C70.715 47.4807 71.4918 48.0159 72.3968 48.4094C73.302 48.8031 74.3016 49 75.3958 49C76.4897 49 77.4895 48.7997 78.3945 48.3992C79.2995 47.9986 80.083 47.4565 80.7449 46.7727C81.4069 46.089 81.9201 45.2913 82.2849 44.3798C82.6495 43.4681 82.832 42.5014 82.832 41.4793ZM80.2181 41.5207C80.2181 42.2251 80.0999 42.8915 79.8635 43.52C79.6272 44.1484 79.2995 44.6939 78.8809 45.1568C78.462 45.6195 77.9589 45.9854 77.3713 46.2547C76.7837 46.5241 76.1387 46.6589 75.4363 46.6589C74.7338 46.6589 74.0855 46.5207 73.491 46.2444C72.8967 45.9681 72.3868 45.5954 71.9612 45.1256C71.5356 44.6561 71.2047 44.107 70.9683 43.4786C70.7319 42.85 70.6137 42.1837 70.6137 41.4793C70.6137 40.7747 70.7319 40.1083 70.9683 39.48C71.2047 38.8516 71.5323 38.3059 71.9512 37.8432C72.3698 37.3805 72.8731 37.0146 73.4607 36.7451C74.0483 36.4759 74.6933 36.3411 75.3958 36.3411C76.098 36.3411 76.7466 36.4793 77.3409 36.7556C77.9351 37.0316 78.4451 37.4046 78.8706 37.8742C79.2962 38.3439 79.6272 38.8928 79.8635 39.5214C80.0999 40.1498 80.2181 40.8163 80.2181 41.5207ZM94.8578 46.9488L93.3786 45.4572C92.9868 45.8578 92.5715 46.1857 92.1324 46.4413C91.6934 46.6969 91.1835 46.8245 90.6026 46.8245C90.1299 46.8245 89.6976 46.7312 89.3059 46.5448C88.9141 46.3584 88.5763 46.1063 88.2927 45.7886C88.0089 45.4709 87.7895 45.0981 87.6341 44.6698C87.4788 44.2417 87.4011 43.779 87.4011 43.2817C87.4011 42.7984 87.4788 42.3459 87.6341 41.9247C87.7895 41.5034 88.0022 41.134 88.2725 40.8163C88.5427 40.4986 88.8667 40.2465 89.2451 40.0601C89.6233 39.8735 90.0353 39.7804 90.4811 39.7804C91.1025 39.7804 91.6258 39.9081 92.0514 40.1636C92.4769 40.4192 92.8787 40.7472 93.257 41.1477L94.7766 39.4695C94.2769 38.9033 93.6926 38.4474 93.024 38.1022C92.3554 37.7569 91.5145 37.5842 90.5013 37.5842C89.7043 37.5842 88.9647 37.7362 88.2825 38.0401C87.6003 38.3439 87.0093 38.7583 86.513 39.2831C86.0166 39.8079 85.6282 40.4158 85.348 41.1063C85.0676 41.797 84.9291 42.536 84.9291 43.3232C84.9291 44.1104 85.0676 44.8459 85.348 45.5296C85.6282 46.2135 86.0166 46.8143 86.513 47.3321C87.0093 47.85 87.5969 48.2576 88.2725 48.5546C88.948 48.8516 89.684 49 90.4811 49C91.5212 49 92.379 48.81 93.0543 48.4301C93.7298 48.0503 94.331 47.5565 94.8578 46.9488ZM100.014 39.9461H102.892V37.8122H100.014V34.8079H97.5425V37.8122H96.1848V39.9461H97.5425V45.7196C97.5425 46.3273 97.6169 46.8384 97.7687 47.2458C97.9173 47.6532 98.1301 47.9813 98.4104 48.2333C98.6908 48.482 99.0215 48.6616 99.4033 48.772C99.7814 48.8826 100.197 48.9379 100.643 48.9379C101.102 48.9379 101.507 48.8894 101.858 48.7929C102.21 48.6962 102.54 48.558 102.851 48.3785V46.3273C102.365 46.576 101.858 46.7003 101.331 46.7003C100.913 46.7003 100.589 46.5933 100.359 46.3792C100.129 46.165 100.014 45.8127 100.014 45.3293V39.9461ZM115.809 43.2817C115.809 42.4945 115.667 41.7556 115.384 41.0649C115.1 40.3742 114.705 39.7699 114.198 39.2519C113.692 38.7342 113.091 38.3266 112.395 38.0296C111.699 37.7326 110.939 37.5842 110.115 37.5842C109.291 37.5842 108.532 37.7362 107.836 38.0401C107.14 38.3439 106.539 38.7549 106.032 39.2727C105.526 39.7906 105.127 40.3985 104.837 41.0958C104.547 41.7934 104.401 42.536 104.401 43.3232C104.401 44.1104 104.543 44.8459 104.827 45.5296C105.111 46.2135 105.506 46.8143 106.012 47.3321C106.519 47.85 107.12 48.2576 107.816 48.5546C108.511 48.8516 109.264 49 110.075 49C110.899 49 111.662 48.848 112.364 48.5442C113.067 48.2403 113.671 47.8293 114.178 47.3113C114.684 46.7936 115.083 46.1891 115.373 45.4986C115.664 44.8079 115.809 44.069 115.809 43.2817ZM113.337 43.3232C113.337 43.8066 113.263 44.259 113.114 44.6802C112.969 45.1015 112.753 45.4709 112.472 45.7886C112.189 46.1063 111.851 46.3584 111.456 46.5448C111.058 46.7312 110.612 46.8245 110.115 46.8245C109.646 46.8245 109.214 46.7312 108.815 46.5448C108.42 46.3584 108.079 46.1063 107.789 45.7886C107.501 45.4709 107.275 45.0945 107.116 44.6595C106.954 44.2244 106.873 43.7651 106.873 43.2817C106.873 42.7984 106.947 42.3459 107.096 41.9247C107.241 41.5034 107.458 41.134 107.738 40.8163C108.021 40.4986 108.359 40.2465 108.754 40.0601C109.153 39.8735 109.592 39.7804 110.075 39.7804C110.558 39.7804 110.997 39.8735 111.395 40.0601C111.79 40.2465 112.131 40.502 112.422 40.8266C112.709 41.1511 112.935 41.5275 113.094 41.9558C113.256 42.3839 113.337 42.8398 113.337 43.3232ZM130.003 38.3507V48.7513H132.475V34.2485H129.82L125.505 41.1063L121.189 34.2485H118.534V48.7513H121.006V38.3923L125.444 45.1878H125.525L130.003 38.3507ZM136.071 48.7513H146V46.4515H138.543V34.2485H136.071V48.7513V48.7513Z" fill="#042435"/>
<mask id="mask0_101_3877" style="mask-type:alpha" maskUnits="userSpaceOnUse" x="35" y="26" width="25" height="30">
<path fill-rule="evenodd" clip-rule="evenodd" d="M46.2993 53.469L45.6075 54.1548C44.4072 55.345 42.8238 55.9402 41.2407 55.9402L41.2354 55.9454C39.6524 55.9454 38.0671 55.3481 36.8636 54.1548L36.8631 54.1546C35.6629 52.9644 35.0627 51.3942 35.0625 49.824V49.814C35.0627 48.5171 35.4724 47.22 36.2911 46.1373C36.5829 45.7515 36.9867 45.5333 37.472 45.4992C38.8047 45.4046 39.9337 47.0398 39.0539 48.2198C38.7012 48.6927 38.5241 49.2561 38.5228 49.819C38.5243 50.5079 38.7892 51.1975 39.3171 51.7211L39.3175 51.7215C39.8436 52.2431 40.5394 52.5042 41.2354 52.5042V52.5092C41.9301 52.5077 42.6257 52.245 43.1537 51.7215L43.8453 51.0354L46.2993 53.469ZM55.222 29.3563L55.2222 29.3565C57.34 31.4567 58.3988 34.2236 58.3991 36.9883C58.3988 39.7538 57.34 42.5204 55.2222 44.6204L51.2068 48.6023H51.2066L48.753 46.169H48.7526L52.8312 42.1242C54.2295 40.7038 54.9289 38.8465 54.9289 36.9883C54.9289 35.1029 54.2087 33.2181 52.7686 31.79L52.7682 31.7896C51.3278 30.3613 49.4274 29.6473 47.5259 29.6471C45.6245 29.6471 43.7238 30.3613 42.2837 31.7898L42.2833 31.79C40.8432 33.2181 40.1228 35.1027 40.1228 36.9883C40.1228 38.8561 40.8295 40.7229 42.2425 42.1461L47.5259 47.3856L47.5262 47.3858L51.8982 51.7215C52.4262 52.245 53.1215 52.5079 53.8163 52.5092V52.5042C54.5125 52.5042 55.2081 52.2429 55.7346 51.7213L55.7348 51.7211C56.2629 51.1973 56.5278 50.5075 56.5289 49.819C56.528 49.2563 56.3507 48.6925 55.998 48.2198C54.7365 46.5292 57.4367 44.3869 58.7606 46.1371C59.5793 47.22 59.989 48.5171 59.9894 49.814V49.824C59.989 51.3942 59.3888 52.964 58.1886 54.1548H58.1881C56.9848 55.3481 55.3995 55.9454 53.8163 55.9454L53.8114 55.9406C52.2278 55.9402 50.6442 55.345 49.4442 54.1548L46.2991 51.0361V51.0356L39.8295 44.6204C37.7119 42.5202 36.6528 39.7538 36.6526 36.9883C36.6528 34.2236 37.7119 31.4567 39.8295 29.3565L39.8297 29.3563C41.9476 27.2563 44.7375 26.2061 47.5259 26.2061C50.3144 26.2061 53.1043 27.2561 55.222 29.3563V29.3563Z" fill="white"/>
</mask>
<g mask="url(#mask0_101_3877)">
<path fill-rule="evenodd" clip-rule="evenodd" d="M46.2993 53.469L45.6075 54.1548C44.4072 55.345 42.8238 55.9402 41.2407 55.9402L41.2354 55.9454C39.6524 55.9454 38.0671 55.3481 36.8636 54.1548L36.8631 54.1546C35.6629 52.9644 35.0627 51.3942 35.0625 49.824V49.814C35.0627 48.5171 35.4724 47.22 36.2911 46.1373C36.5829 45.7515 36.9867 45.5333 37.472 45.4992C38.8047 45.4046 39.9337 47.0398 39.0539 48.2198C38.7012 48.6927 38.5241 49.2561 38.5228 49.819C38.5243 50.5079 38.7892 51.1975 39.3171 51.7211L39.3175 51.7215C39.8436 52.2431 40.5394 52.5042 41.2354 52.5042V52.5092C41.9301 52.5077 42.6257 52.245 43.1537 51.7215L43.8453 51.0354L46.2993 53.469ZM55.222 29.3563L55.2222 29.3565C57.34 31.4567 58.3988 34.2236 58.3991 36.9883C58.3988 39.7538 57.34 42.5204 55.2222 44.6204L51.2068 48.6023H51.2066L48.753 46.169H48.7526L52.8312 42.1242C54.2295 40.7038 54.9289 38.8465 54.9289 36.9883C54.9289 35.1029 54.2087 33.2181 52.7686 31.79L52.7682 31.7896C51.3278 30.3613 49.4274 29.6473 47.5259 29.6471C45.6245 29.6471 43.7238 30.3613 42.2837 31.7898L42.2833 31.79C40.8432 33.2181 40.1228 35.1027 40.1228 36.9883C40.1228 38.8561 40.8295 40.7229 42.2425 42.1461L47.5259 47.3856L47.5262 47.3858L51.8982 51.7215C52.4262 52.245 53.1215 52.5079 53.8163 52.5092V52.5042C54.5125 52.5042 55.2081 52.2429 55.7346 51.7213L55.7348 51.7211C56.2629 51.1973 56.5278 50.5075 56.5289 49.819C56.528 49.2563 56.3507 48.6925 55.998 48.2198C54.7365 46.5292 57.4367 44.3869 58.7606 46.1371C59.5793 47.22 59.989 48.5171 59.9894 49.814V49.824C59.989 51.3942 59.3888 52.964 58.1886 54.1548H58.1881C56.9848 55.3481 55.3995 55.9454 53.8163 55.9454L53.8114 55.9406C52.2278 55.9402 50.6442 55.345 49.4442 54.1548L46.2991 51.0361V51.0356L39.8295 44.6204C37.7119 42.5202 36.6528 39.7538 36.6526 36.9883C36.6528 34.2236 37.7119 31.4567 39.8295 29.3565L39.8297 29.3563C41.9476 27.2563 44.7375 26.2061 47.5259 26.2061C50.3144 26.2061 53.1043 27.2561 55.222 29.3563V29.3563Z" fill="url(#paint0_linear_101_3877)"/>
</g>
<defs>
<linearGradient id="paint0_linear_101_3877" x1="58.4418" y1="52.2527" x2="58.4418" y2="26.2061" gradientUnits="userSpaceOnUse">
<stop stop-color="#F4C257"/>
<stop offset="1" stop-color="#F5B00F"/>
</linearGradient>
</defs>
</svg>
